<svg width="54" height="54" viewBox="0 0 54 54" fill="none" xmlns="http://www.w3.org/2000/svg">
<rect width="54" height="54" rx="16" fill="#CABFE3"/>
<path d="M15.4057 26.594C15.3085 26.8559 15.3085 27.1441 15.4057 27.406C16.3527 29.7022 17.9601 31.6654 20.0243 33.0469C22.0884 34.4284 24.5162 35.1659 27 35.1659C29.4838 35.1659 31.9117 34.4284 33.9758 33.0469C36.0399 31.6654 37.6474 29.7022 38.5944 27.406C38.6916 27.1441 38.6916 26.8559 38.5944 26.594C37.6474 24.2978 36.0399 22.3345 33.9758 20.953C31.9117 19.5715 29.4838 18.834 27 18.834C24.5162 18.834 22.0884 19.5715 20.0243 20.953C17.9601 22.3345 16.3527 24.2978 15.4057 26.594Z" stroke="#4F4373" stroke-width="2" stroke-linecap="round" stroke-linejoin="round"/>
<path d="M27 30.5C28.933 30.5 30.5 28.933 30.5 27C30.5 25.067 28.933 23.5 27 23.5C25.067 23.5 23.5 25.067 23.5 27C23.5 28.933 25.067 30.5 27 30.5Z" stroke="#4F4373" stroke-width="2" stroke-linecap="round" stroke-linejoin="round"/>
</svg>
