<svg width="54" height="54" viewBox="0 0 54 54" fill="none" xmlns="http://www.w3.org/2000/svg">
<rect width="54" height="54" rx="16" fill="#CABFE3"/>
<path d="M22.9166 29.9167C23.6902 29.9167 24.4321 29.6094 24.979 29.0624C25.526 28.5154 25.8333 27.7735 25.8333 27C25.8333 25.39 25.25 24.6667 24.6666 23.5C23.416 20.9998 24.4053 18.7703 27 16.5C27.5833 19.4167 29.3333 22.2167 31.6666 24.0833C34 25.95 35.1666 28.1667 35.1666 30.5C35.1666 31.5725 34.9554 32.6344 34.545 33.6252C34.1346 34.6161 33.533 35.5164 32.7747 36.2747C32.0163 37.033 31.1161 37.6346 30.1252 38.045C29.1344 38.4554 28.0724 38.6667 27 38.6667C25.9275 38.6667 24.8656 38.4554 23.8747 38.045C22.8839 37.6346 21.9836 37.033 21.2253 36.2747C20.4669 35.5164 19.8654 34.6161 19.455 33.6252C19.0445 32.6344 18.8333 31.5725 18.8333 30.5C18.8333 29.1548 19.3385 27.8237 20 27C20 27.7735 20.3073 28.5154 20.8543 29.0624C21.4012 29.6094 22.1431 29.9167 22.9166 29.9167Z" stroke="#4F4473" stroke-width="2.15833" stroke-linecap="round" stroke-linejoin="round"/>
</svg>
