<svg width="54" height="54" viewBox="0 0 54 54" fill="none" xmlns="http://www.w3.org/2000/svg">
<rect width="54" height="54" rx="16" fill="#6C855A"/>
<path d="M27 18.8333C27 18.1411 27.2053 17.4644 27.5899 16.8888C27.9744 16.3133 28.5211 15.8647 29.1606 15.5998C29.8002 15.3348 30.5039 15.2655 31.1828 15.4006C31.8618 15.5356 32.4854 15.869 32.9749 16.3585C33.4644 16.8479 33.7977 17.4716 33.9328 18.1505C34.0678 18.8294 33.9985 19.5332 33.7336 20.1727C33.4687 20.8123 33.0201 21.3589 32.4445 21.7435C31.8689 22.1281 31.1922 22.3333 30.5 22.3333M27 18.8333C27 18.1411 26.7947 17.4644 26.4101 16.8888C26.0256 16.3133 25.4789 15.8647 24.8394 15.5998C24.1999 15.3348 23.4961 15.2655 22.8172 15.4006C22.1383 15.5356 21.5146 15.869 21.0251 16.3585C20.5356 16.8479 20.2023 17.4716 20.0673 18.1505C19.9322 18.8294 20.0015 19.5332 20.2664 20.1727C20.5313 20.8123 20.9799 21.3589 21.5555 21.7435C22.1311 22.1281 22.8078 22.3333 23.5 22.3333M27 18.8333V20M30.5 22.3333C31.1922 22.3333 31.8689 22.5386 32.4445 22.9232C33.0201 23.3078 33.4687 23.8544 33.7336 24.4939C33.9985 25.1335 34.0678 25.8372 33.9328 26.5161C33.7977 27.1951 33.4644 27.8187 32.9749 28.3082C32.4854 28.7977 31.8618 29.131 31.1828 29.2661C30.5039 29.4011 29.8002 29.3318 29.1606 29.0669C28.5211 28.802 27.9744 28.3534 27.5899 27.7778C27.2053 27.2023 27 26.5256 27 25.8333M30.5 22.3333H29.3333M23.5 22.3333C22.8078 22.3333 22.1311 22.5386 21.5555 22.9232C20.9799 23.3078 20.5313 23.8544 20.2664 24.4939C20.0015 25.1335 19.9322 25.8372 20.0673 26.5161C20.2023 27.1951 20.5356 27.8187 21.0251 28.3082C21.5146 28.7977 22.1383 29.131 22.8172 29.2661C23.4961 29.4011 24.1999 29.3318 24.8394 29.0669C25.4789 28.802 26.0256 28.3534 26.4101 27.7778C26.7947 27.2023 27 26.5256 27 25.8333M23.5 22.3333H24.6667M27 25.8333V24.6667" stroke="white" stroke-width="1.7" stroke-linecap="round" stroke-linejoin="round"/>
<path d="M27 24.6667C28.2887 24.6667 29.3334 23.622 29.3334 22.3333C29.3334 21.0447 28.2887 20 27 20C25.7114 20 24.6667 21.0447 24.6667 22.3333C24.6667 23.622 25.7114 24.6667 27 24.6667Z" stroke="white" stroke-width="1.7" stroke-linecap="round" stroke-linejoin="round"/>
<path d="M27 24.6667V38.6667" stroke="white" stroke-width="1.7" stroke-linecap="round" stroke-linejoin="round"/>
<path d="M27 38.6667C31.9 38.6667 35.1667 36.7218 35.1667 32.8333C30.2667 32.8333 27 34.7782 27 38.6667Z" stroke="white" stroke-width="1.7" stroke-linecap="round" stroke-linejoin="round"/>
<path d="M27 38.6667C22.1 38.6667 18.8333 36.7218 18.8333 32.8333C23.7333 32.8333 27 34.7782 27 38.6667Z" stroke="white" stroke-width="1.7" stroke-linecap="round" stroke-linejoin="round"/>
</svg>
