<svg width="54" height="54" viewBox="0 0 54 54" fill="none" xmlns="http://www.w3.org/2000/svg">
<rect width="54" height="54" rx="16" fill="#6C855A"/>
<path d="M27.7012 38.4321C29.8712 36.5585 36.3334 30.4918 36.3334 24.6666C36.3334 22.1913 35.35 19.8173 33.5997 18.067C31.8493 16.3166 29.4754 15.3333 27 15.3333C24.5247 15.3333 22.1507 16.3166 20.4004 18.067C18.65 19.8173 17.6667 22.1913 17.6667 24.6666C17.6667 30.4918 24.1289 36.5585 26.2989 38.4321C26.501 38.5842 26.7471 38.6664 27 38.6664C27.253 38.6664 27.499 38.5842 27.7012 38.4321Z" stroke="white" stroke-width="2.15833" stroke-linecap="round" stroke-linejoin="round"/>
<path d="M27 28.1667C28.933 28.1667 30.5 26.5997 30.5 24.6667C30.5 22.7337 28.933 21.1667 27 21.1667C25.067 21.1667 23.5 22.7337 23.5 24.6667C23.5 26.5997 25.067 28.1667 27 28.1667Z" stroke="white" stroke-width="2.15833" stroke-linecap="round" stroke-linejoin="round"/>
</svg>
