<svg width="54" height="54" viewBox="0 0 54 54" fill="none" xmlns="http://www.w3.org/2000/svg">
<rect width="54" height="54" rx="16" fill="#6C855A"/>
<path d="M21.1667 36.3333H32.8334" stroke="white" stroke-width="2.15833" stroke-linecap="round" stroke-linejoin="round"/>
<path d="M24.6667 36.3333C31.0834 33.4167 25.6 28.8667 28.1667 24.6667" stroke="white" stroke-width="2.15833" stroke-linecap="round" stroke-linejoin="round"/>
<path d="M24.0834 23.9667C25.3667 24.9 26.1834 26.5333 26.7667 28.2833C24.4334 28.75 22.6834 28.75 21.1667 27.9333C19.7667 27.2333 18.4834 25.7167 17.6667 23.0333C20.9334 22.45 22.8 23.0333 24.0834 23.9667Z" stroke="white" stroke-width="2.15833" stroke-linecap="round" stroke-linejoin="round"/>
<path d="M29.45 20C28.5605 21.3902 28.1131 23.0172 28.1667 24.6667C30.3833 24.55 32.0167 23.9667 33.1833 23.0333C34.35 21.8667 35.05 20.35 35.1667 17.6667C32.0167 17.7833 30.5 18.8333 29.45 20Z" stroke="white" stroke-width="2.15833" stroke-linecap="round" stroke-linejoin="round"/>
</svg>
