<svg width="54" height="54" viewBox="0 0 54 54" fill="none" xmlns="http://www.w3.org/2000/svg">
<rect width="54" height="54" rx="16" fill="#6C855A"/>
<path d="M15.3333 21.1667L20.4783 16.0217C20.6954 15.8033 20.9535 15.6301 21.2378 15.5119C21.5222 15.3938 21.8271 15.3331 22.135 15.3333H31.865C32.1729 15.3331 32.4778 15.3938 32.7621 15.5119C33.0464 15.6301 33.3046 15.8033 33.5216 16.0217L38.6666 21.1667" stroke="white" stroke-width="2.15833" stroke-linecap="round" stroke-linejoin="round"/>
<path d="M17.6667 27V36.3333C17.6667 36.9522 17.9125 37.5457 18.3501 37.9832C18.7877 38.4208 19.3812 38.6667 20 38.6667H34C34.6189 38.6667 35.2124 38.4208 35.6499 37.9832C36.0875 37.5457 36.3334 36.9522 36.3334 36.3333V27" stroke="white" stroke-width="2.15833" stroke-linecap="round" stroke-linejoin="round"/>
<path d="M30.5 38.6667V34C30.5 33.3812 30.2542 32.7877 29.8166 32.3501C29.379 31.9125 28.7855 31.6667 28.1667 31.6667H25.8333C25.2145 31.6667 24.621 31.9125 24.1834 32.3501C23.7458 32.7877 23.5 33.3812 23.5 34V38.6667" stroke="white" stroke-width="2.15833" stroke-linecap="round" stroke-linejoin="round"/>
<path d="M15.3333 21.1667H38.6666" stroke="white" stroke-width="2.15833" stroke-linecap="round" stroke-linejoin="round"/>
<path d="M38.6666 21.1667V24.6667C38.6666 25.2855 38.4208 25.879 37.9832 26.3166C37.5456 26.7542 36.9522 27 36.3333 27C35.6517 26.9625 35.0007 26.7045 34.4783 26.265C34.3391 26.1644 34.1717 26.1102 34 26.1102C33.8282 26.1102 33.6609 26.1644 33.5216 26.265C32.9993 26.7045 32.3483 26.9625 31.6666 27C30.985 26.9625 30.334 26.7045 29.8116 26.265C29.6724 26.1644 29.5051 26.1102 29.3333 26.1102C29.1616 26.1102 28.9942 26.1644 28.855 26.265C28.3326 26.7045 27.6816 26.9625 27 27C26.3183 26.9625 25.6673 26.7045 25.145 26.265C25.0058 26.1644 24.8384 26.1102 24.6666 26.1102C24.4949 26.1102 24.3275 26.1644 24.1883 26.265C23.666 26.7045 23.015 26.9625 22.3333 27C21.6517 26.9625 21.0007 26.7045 20.4783 26.265C20.3391 26.1644 20.1717 26.1102 20 26.1102C19.8282 26.1102 19.6609 26.1644 19.5216 26.265C18.9993 26.7045 18.3483 26.9625 17.6666 27C17.0478 27 16.4543 26.7542 16.0167 26.3166C15.5791 25.879 15.3333 25.2855 15.3333 24.6667V21.1667" stroke="white" stroke-width="2.15833" stroke-linecap="round" stroke-linejoin="round"/>
</svg>
